<svg xmlns="http://www.w3.org/2000/svg" viewBox="0 0 20 19.996"><g fill="currentColor" clip-path="url(#clip0_3106_1713)"><path d="M18.566 1.43C17.176.04 14.97-.353 12.354.323 9.797.983 7.135 2.597 4.866 4.87 2.596 7.14.983 9.797.323 12.354-.353 14.966.04 17.17 1.43 18.566s2.27 1.43 3.843 1.43c1.574 0 1.53-.11 2.369-.323 2.557-.66 5.218-2.274 7.487-4.548 2.27-2.27 3.883-4.931 4.549-7.488.675-2.612.283-4.817-1.108-6.212zm.546 6.068c-.636 2.457-2.195 5.025-4.395 7.22s-4.762 3.758-7.22 4.394c-2.403.62-4.414.283-5.65-.959-1.241-1.241-1.579-3.247-.958-5.65.635-2.458 2.194-5.025 4.394-7.22s4.762-3.759 7.22-4.394a8.9 8.9 0 0 1 2.22-.303c1.414 0 2.596.427 3.43 1.261 1.242 1.241 1.58 3.247.959 5.65"/><path d="m14.895 6.646-.387-.407-.407-.427-2.548 2.422-1.306-3.261-.52.208-.547.219 1.306 3.261H6.97V7.187H5.818v6.969H6.97V9.813h3.58l-1.087 3.41.536.169.566.184 1.108-3.5 3.222 1.757.268-.496.283-.517-3.138-1.712z"/></g></svg>