<svg xmlns="http://www.w3.org/2000/svg" fill="none" viewBox="0 0 68 20"><path fill="currentColor" d="M3.64 0H0v19.5h3.64V7.61H7.59V4.25H3.64zM49.989 4.25h-3.64v15.251h3.64zM64.123 19.5H68l-6.197-9.001 5.592-6.248H63.01l-5.49 6.472V0h-3.64v19.5h3.64v-4.212l2.159-2.415zM36.217 3.898c-3.565 0-5.184 2.106-5.184 2.106l-.151-1.753h-3.125V19.5h3.64V9.654s.937-2.25 4.022-2.25c1.642 0 3.602.584 3.602 3.443V19.5h3.629v-8.99c.002-5.465-3.782-6.613-6.433-6.613M16.805 3.75c-4.524 0-8.193 3.639-8.193 8.125S12.281 20 16.805 20s8.193-3.638 8.193-8.125c0-4.486-3.669-8.125-8.193-8.125m0 12.843c-2.627 0-4.757-2.113-4.757-4.718s2.13-4.717 4.757-4.717 4.757 2.112 4.757 4.717-2.13 4.718-4.757 4.718"/></svg>